<svg width="402" height="344" viewBox="0 0 402 344" fill="none" xmlns="http://www.w3.org/2000/svg">
<rect width="402" height="344" fill="white"/>
<path d="M63.1793 56.1224L85.4565 23.0952" stroke="#4D5EFF" stroke-width="10" stroke-linecap="round"/>
<path d="M77.0219 57.0148L88.5085 39.9852" stroke="#FFD233" stroke-width="8.17878" stroke-linecap="round"/>
<path d="M109.82 61H101.93V36.2518H92.9617V29.8923H118.809V36.2518H109.82V61ZM126.876 41.8568C124.376 41.8568 122.629 43.603 122.435 46.3192H131.145C131.015 43.5167 129.42 41.8568 126.876 41.8568ZM131.425 53.9291H138.388C137.547 58.6071 133.15 61.5605 126.941 61.5605C119.288 61.5605 114.89 57.0334 114.89 49.1648C114.89 41.2532 119.396 36.4458 126.833 36.4458C134.227 36.4458 138.539 40.9298 138.539 48.5828V50.6954H122.392V51.0835C122.457 54.2093 124.246 56.1495 127.157 56.1495C129.377 56.1495 130.908 55.3303 131.425 53.9291ZM160.855 45.8881H153.849C153.526 43.6461 152.146 42.3095 149.818 42.3095C146.843 42.3095 145.334 44.5299 145.334 48.9708C145.334 53.4548 146.865 55.6968 149.818 55.6968C152.103 55.6968 153.504 54.5327 153.849 52.2907H160.855C160.403 58.025 156.328 61.5605 149.818 61.5605C141.906 61.5605 137.681 57.1627 137.681 48.9708C137.681 40.822 141.906 36.4458 149.818 36.4458C156.436 36.4458 160.381 40.0028 160.855 45.8881ZM161.269 61V28.0168H168.728V40.9945H169.138C170.194 38.2351 173.169 36.5536 176.618 36.5536C181.922 36.5536 185.134 39.7657 185.134 45.5863V61H177.502V47.3109C177.502 44.3359 175.907 42.7622 173.342 42.7622C170.733 42.7622 168.879 44.6377 168.879 47.3971V61H161.269Z" fill="black"/>
<path d="M191.756 61.7114C189.04 61.7114 187.423 60.0299 187.423 57.6154C187.423 55.1794 189.04 53.4979 191.756 53.4979C194.494 53.4979 196.111 55.1794 196.111 57.6154C196.111 60.0299 194.494 61.7114 191.756 61.7114Z" fill="#FFD233"/>
</svg>
